<svg width="110" height="19" viewBox="0 0 110 19" fill="none" xmlns="http://www.w3.org/2000/svg">
<path d="M6.53259 15.48C7.13259 15.48 7.63659 15.408 8.04459 15.264C8.45259 15.12 8.77659 14.928 9.01659 14.688C9.26459 14.448 9.44059 14.168 9.54459 13.848C9.65659 13.528 9.71259 13.188 9.71259 12.828C9.71259 12.452 9.65259 12.116 9.53259 11.82C9.41259 11.516 9.22459 11.26 8.96859 11.052C8.71259 10.836 8.38059 10.672 7.97259 10.56C7.57259 10.448 7.08859 10.392 6.52059 10.392H3.26859V15.48H6.53259ZM3.26859 3.144V8.16H5.83659C6.94059 8.16 7.77259 7.96 8.33259 7.56C8.90059 7.16 9.18459 6.524 9.18459 5.652C9.18459 4.748 8.92859 4.104 8.41659 3.72C7.90459 3.336 7.10459 3.144 6.01659 3.144H3.26859ZM6.01659 0.647999C7.15259 0.647999 8.12459 0.755999 8.93259 0.972C9.74059 1.188 10.4006 1.496 10.9126 1.896C11.4326 2.296 11.8126 2.78 12.0526 3.348C12.2926 3.916 12.4126 4.556 12.4126 5.268C12.4126 5.676 12.3526 6.068 12.2326 6.444C12.1126 6.812 11.9246 7.16 11.6686 7.488C11.4206 7.808 11.1006 8.1 10.7086 8.364C10.3246 8.628 9.86459 8.852 9.32859 9.036C11.7126 9.572 12.9046 10.86 12.9046 12.9C12.9046 13.636 12.7646 14.316 12.4846 14.94C12.2046 15.564 11.7966 16.104 11.2606 16.56C10.7246 17.008 10.0646 17.36 9.28059 17.616C8.49659 17.872 7.60059 18 6.59259 18H0.0405931V0.647999H6.01659ZM21.4775 3.216V8.028H27.5495V10.512H21.4775V15.42H29.1815V18H18.2375V0.647999H29.1815V3.216H21.4775ZM43.6822 3.804C43.5862 3.972 43.4822 4.096 43.3702 4.176C43.2662 4.248 43.1342 4.284 42.9742 4.284C42.8062 4.284 42.6222 4.224 42.4222 4.104C42.2302 3.976 41.9982 3.836 41.7262 3.684C41.4542 3.532 41.1342 3.396 40.7662 3.276C40.4062 3.148 39.9782 3.084 39.4822 3.084C39.0342 3.084 38.6422 3.14 38.3062 3.252C37.9702 3.356 37.6862 3.504 37.4542 3.696C37.2302 3.888 37.0622 4.12 36.9502 4.392C36.8382 4.656 36.7822 4.948 36.7822 5.268C36.7822 5.676 36.8942 6.016 37.1182 6.288C37.3502 6.56 37.6542 6.792 38.0302 6.984C38.4062 7.176 38.8342 7.348 39.3142 7.5C39.7942 7.652 40.2862 7.816 40.7902 7.992C41.2942 8.16 41.7862 8.36 42.2662 8.592C42.7462 8.816 43.1742 9.104 43.5502 9.456C43.9262 9.8 44.2262 10.224 44.4502 10.728C44.6822 11.232 44.7982 11.844 44.7982 12.564C44.7982 13.348 44.6622 14.084 44.3902 14.772C44.1262 15.452 43.7342 16.048 43.2142 16.56C42.7022 17.064 42.0742 17.464 41.3302 17.76C40.5862 18.048 39.7342 18.192 38.7742 18.192C38.2222 18.192 37.6782 18.136 37.1422 18.024C36.6062 17.92 36.0902 17.768 35.5942 17.568C35.1062 17.368 34.6462 17.128 34.2142 16.848C33.7822 16.568 33.3982 16.256 33.0622 15.912L34.0102 14.364C34.0902 14.252 34.1942 14.16 34.3222 14.088C34.4502 14.008 34.5862 13.968 34.7302 13.968C34.9302 13.968 35.1462 14.052 35.3782 14.22C35.6102 14.38 35.8862 14.56 36.2062 14.76C36.5262 14.96 36.8982 15.144 37.3222 15.312C37.7542 15.472 38.2702 15.552 38.8702 15.552C39.7902 15.552 40.5022 15.336 41.0062 14.904C41.5102 14.464 41.7622 13.836 41.7622 13.02C41.7622 12.564 41.6462 12.192 41.4142 11.904C41.1902 11.616 40.8902 11.376 40.5142 11.184C40.1382 10.984 39.7102 10.816 39.2302 10.68C38.7502 10.544 38.2622 10.396 37.7662 10.236C37.2702 10.076 36.7822 9.884 36.3022 9.66C35.8222 9.436 35.3942 9.144 35.0182 8.784C34.6422 8.424 34.3382 7.976 34.1062 7.44C33.8822 6.896 33.7702 6.228 33.7702 5.436C33.7702 4.804 33.8942 4.188 34.1422 3.588C34.3982 2.988 34.7662 2.456 35.2462 1.992C35.7262 1.528 36.3182 1.156 37.0222 0.875999C37.7262 0.596 38.5342 0.456 39.4462 0.456C40.4702 0.456 41.4142 0.616 42.2782 0.935999C43.1422 1.256 43.8782 1.704 44.4862 2.28L43.6822 3.804ZM53.254 18H50.014V0.647999H53.254V18ZM74.947 9.324C74.947 10.596 74.735 11.764 74.311 12.828C73.887 13.892 73.291 14.808 72.523 15.576C71.755 16.344 70.831 16.94 69.751 17.364C68.671 17.788 67.471 18 66.151 18H59.539V0.647999H66.151C67.471 0.647999 68.671 0.863999 69.751 1.296C70.831 1.72 71.755 2.316 72.523 3.084C73.291 3.844 73.887 4.756 74.311 5.82C74.735 6.884 74.947 8.052 74.947 9.324ZM71.635 9.324C71.635 8.372 71.507 7.52 71.251 6.768C71.003 6.008 70.639 5.368 70.159 4.848C69.687 4.32 69.111 3.916 68.431 3.636C67.759 3.356 66.999 3.216 66.151 3.216H62.779V15.432H66.151C66.999 15.432 67.759 15.292 68.431 15.012C69.111 14.732 69.687 14.332 70.159 13.812C70.639 13.284 71.003 12.644 71.251 11.892C71.507 11.132 71.635 10.276 71.635 9.324ZM83.4368 3.216V8.028H89.5088V10.512H83.4368V15.42H91.1408V18H80.1968V0.647999H91.1408V3.216H83.4368ZM101.646 8.904C102.254 8.904 102.782 8.828 103.23 8.676C103.686 8.524 104.058 8.316 104.346 8.052C104.642 7.78 104.862 7.46 105.006 7.092C105.15 6.724 105.222 6.32 105.222 5.88C105.222 5 104.93 4.324 104.346 3.852C103.77 3.38 102.886 3.144 101.694 3.144H99.6295V8.904H101.646ZM109.95 18H107.034C106.482 18 106.082 17.784 105.834 17.352L102.186 11.796C102.05 11.588 101.898 11.44 101.73 11.352C101.57 11.264 101.33 11.22 101.01 11.22H99.6295V18H96.4015V0.647999H101.694C102.87 0.647999 103.878 0.771999 104.718 1.02C105.566 1.26 106.258 1.6 106.794 2.04C107.338 2.48 107.738 3.008 107.994 3.624C108.25 4.232 108.378 4.904 108.378 5.64C108.378 6.224 108.29 6.776 108.114 7.296C107.946 7.816 107.698 8.288 107.37 8.712C107.05 9.136 106.65 9.508 106.17 9.828C105.698 10.148 105.158 10.4 104.55 10.584C104.758 10.704 104.95 10.848 105.126 11.016C105.302 11.176 105.462 11.368 105.606 11.592L109.95 18Z" fill="black"/>
</svg>
